<svg width="14" height="14" viewBox="0 0 14 14" fill="none" xmlns="http://www.w3.org/2000/svg">
<path d="M9.75 0C10.7446 0 11.6984 0.395088 12.4017 1.09835C13.1049 1.80161 13.5 2.75544 13.5 3.75V9.75C13.5 10.7446 13.1049 11.6984 12.4017 12.4017C11.6984 13.1049 10.7446 13.5 9.75 13.5H3.75C2.75544 13.5 1.80161 13.1049 1.09835 12.4017C0.395088 11.6984 0 10.7446 0 9.75V3.75C0 2.75544 0.395088 1.80161 1.09835 1.09835C1.80161 0.395088 2.75544 0 3.75 0H9.75ZM6.68092 3.51316C5.78756 3.51316 4.93079 3.86804 4.29909 4.49975C3.66739 5.13145 3.3125 5.98822 3.3125 6.88158C3.3125 7.77494 3.66739 8.63171 4.29909 9.26341C4.93079 9.89511 5.78756 10.25 6.68092 10.25C7.57428 10.25 8.43105 9.89511 9.06275 9.26341C9.69446 8.63171 10.0493 7.77494 10.0493 6.88158C10.0493 5.98822 9.69446 5.13145 9.06275 4.49975C8.43105 3.86804 7.57428 3.51316 6.68092 3.51316ZM6.68092 5.19737C7.1276 5.19737 7.55599 5.37481 7.87184 5.69066C8.18769 6.00651 8.36513 6.4349 8.36513 6.88158C8.36513 7.32826 8.18769 7.75664 7.87184 8.0725C7.55599 8.38835 7.1276 8.56579 6.68092 8.56579C6.23424 8.56579 5.80586 8.38835 5.49 8.0725C5.17415 7.75664 4.99671 7.32826 4.99671 6.88158C4.99671 6.4349 5.17415 6.00651 5.49 5.69066C5.80586 5.37481 6.23424 5.19737 6.68092 5.19737ZM10.4704 2.25C10.2471 2.25 10.0329 2.33872 9.87494 2.49665C9.71701 2.65457 9.62829 2.86876 9.62829 3.09211C9.62829 3.31545 9.71701 3.52964 9.87494 3.68756C10.0329 3.84549 10.2471 3.93421 10.4704 3.93421C10.6937 3.93421 10.9079 3.84549 11.0659 3.68756C11.2238 3.52964 11.3125 3.31545 11.3125 3.09211C11.3125 2.86876 11.2238 2.65457 11.0659 2.49665C10.9079 2.33872 10.6937 2.25 10.4704 2.25Z" fill="#524AE1"/>
</svg>
