<svg width="13" height="14" viewBox="0 0 13 14" fill="none" xmlns="http://www.w3.org/2000/svg">
<path d="M12.2056 3.34318C11.4655 3.18692 10.796 2.80958 10.2931 2.2653C9.79029 1.72102 9.47994 1.03779 9.40662 0.313646V0H6.84523V9.7444C6.77493 10.2401 6.51919 10.6942 6.12575 11.0221C5.7323 11.3501 5.22802 11.5293 4.70702 11.5265C4.13797 11.5265 3.59222 11.3094 3.18983 10.9231C2.78745 10.5368 2.56139 10.0128 2.56139 9.4664C2.56139 8.92003 2.78745 8.39604 3.18983 8.0097C3.59222 7.62336 4.13797 7.40631 4.70702 7.40631C4.91491 7.40631 5.10794 7.43483 5.29355 7.4776V4.99695C5.099 4.97333 4.90311 4.96142 4.70702 4.9613C3.45864 4.9613 2.26139 5.43745 1.37866 6.28499C0.495917 7.13253 0 8.28205 0 9.48065C0 10.0741 0.121751 10.6618 0.358301 11.2101C0.594851 11.7584 0.941568 12.2567 1.37866 12.6763C2.26139 13.5239 3.45864 14 4.70702 14C5.95412 13.9981 7.14946 13.5211 8.03059 12.6738C8.91173 11.8265 9.40663 10.678 9.40662 9.48065V4.76884C10.4539 5.49013 11.7111 5.87668 13 5.87373V3.41446C12.7333 3.41903 12.4668 3.39512 12.2056 3.34318Z" fill="#524AE1"/>
</svg>
